<?xml version="1.0" encoding="UTF-8"?>
<svg version="1.1" xmlns="http://www.w3.org/2000/svg" width="64" height="64">
<path d="M0 0 C3.28221312 -0.46888759 5.87185742 -0.77446859 8.70703125 1.171875 C10.59694338 3.03080497 12.30131237 4.96366339 14 7 C14.7940625 7.95003906 15.588125 8.90007813 16.40625 9.87890625 C18.00890809 11.82390428 19.60075107 13.77788354 21.1796875 15.7421875 C22.80614407 17.84169995 22.80614407 17.84169995 24 19 C25.74730139 19.15831254 27.49830059 19.27664255 29.25 19.375 C34.05720315 19.7620735 37.48566909 20.48566909 41 24 C41.375 26.3125 41.375 26.3125 41 29 C39.25 31.3125 39.25 31.3125 36 33 C31.97725707 33.32956151 28.02638272 33.23117987 24 33 C23.79246094 33.52464844 23.58492187 34.04929688 23.37109375 34.58984375 C21.41196211 38.03367343 18.77534154 40.69482327 16.0625 43.5625 C15.52431641 44.13935547 14.98613281 44.71621094 14.43164062 45.31054688 C12.962166 46.88148953 11.48902059 48.44757296 10 50 C9.52232178 50.55292725 9.04464355 51.10585449 8.55249023 51.67553711 C5.98389749 53.86685896 3.22330747 53.18245137 0 53 C0.57665391 48.2128572 2.64082996 44.74871176 5.0625 40.6875 C5.43955078 40.04232422 5.81660156 39.39714844 6.20507812 38.73242188 C7.13037493 37.15121848 8.06432681 35.5750854 9 34 C5.56935778 33.56512986 2.41689263 33.40054515 -1 34 C-3.13214469 35.66014319 -4.71769063 37.45061595 -6.4609375 39.5078125 C-6.96882812 40.00023437 -7.47671875 40.49265625 -8 41 C-10.9375 40.9375 -10.9375 40.9375 -13 40 C-12.7525 38.0509375 -12.7525 38.0509375 -12.5 36.0625 C-11.64161956 28.22671286 -12.00853915 20.8077542 -13 13 C-11.19140625 12.2890625 -11.19140625 12.2890625 -9 12 C-7.46484375 13.3984375 -7.46484375 13.3984375 -5.9375 15.375 C-2.81482511 18.80448792 -0.67371562 19.56409822 3.9375 19.9375 C5.62432059 19.98971652 7.31250659 20.02136068 9 20 C8.72736328 19.50072998 8.45472656 19.00145996 8.17382812 18.48706055 C6.94273151 16.22399982 5.72128787 13.95586801 4.5 11.6875 C4.07074219 10.90181641 3.64148438 10.11613281 3.19921875 9.30664062 C2.79316406 8.54931641 2.38710938 7.79199219 1.96875 7.01171875 C1.59169922 6.31522217 1.21464844 5.61872559 0.82617188 4.90112305 C0 3 0 3 0 0 Z " fill="#36CFED" transform="translate(19,3)"/>
<path d="M0 0 C1.91329102 -0.01836914 1.91329102 -0.01836914 3.86523438 -0.03710938 C5.09435547 -0.03904297 6.32347656 -0.04097656 7.58984375 -0.04296875 C8.71124756 -0.04707764 9.83265137 -0.05118652 10.98803711 -0.05541992 C14.07683614 0.18863273 16.27435709 0.87610154 19.0625 2.1875 C18.7325 3.1775 18.4025 4.1675 18.0625 5.1875 C12.68167008 7.37373317 5.8168152 6.37213259 0.125 6.375 C-1.15052734 6.38724609 -2.42605469 6.39949219 -3.74023438 6.41210938 C-5.58391602 6.41500977 -5.58391602 6.41500977 -7.46484375 6.41796875 C-9.14694946 6.42413208 -9.14694946 6.42413208 -10.86303711 6.43041992 C-13.95183614 6.18636727 -16.14935709 5.49889846 -18.9375 4.1875 C-18.6075 3.1975 -18.2775 2.2075 -17.9375 1.1875 C-12.55667008 -0.99873317 -5.6918152 0.00286741 0 0 Z " fill="#000000" transform="translate(31.9375,57.8125)"/>
<path d="M0 0 C0.3125 2.25 0.3125 2.25 0 5 C-1.75 7.3125 -1.75 7.3125 -5 9 C-9.02274293 9.32956151 -12.97361728 9.23117987 -17 9 C-17.24492188 9.56203125 -17.48984375 10.1240625 -17.7421875 10.703125 C-19.22926539 13.41865854 -21.04062782 15.46391438 -23.125 17.75 C-23.84945312 18.54921875 -24.57390625 19.3484375 -25.3203125 20.171875 C-25.87460937 20.77515625 -26.42890625 21.3784375 -27 22 C-29 20 -29 20 -29.0625 16.875 C-28.21393929 11.82606377 -24.60260762 8.41124509 -21 5 C-17.54096843 3.27048422 -13.56898838 3.59464237 -9.75 3.37890625 C-6.86015992 3.26280834 -6.86015992 3.26280834 -5 1 C-1.7 0 -1.7 0 0 0 Z " fill="#2EB2CC" transform="translate(60,27)"/>
<path d="M0 0 C3.57964054 0.60543603 3.95977746 0.95049534 6.4375 4 C9.55318547 7.38274422 12.38014897 7.55289341 16.875 7.875 C18.91594299 7.94348802 20.9579172 7.99394041 23 8 C22.42655063 10.86724686 22.1385485 11.8614515 20 14 C15.21065457 14.91110443 10.75236848 15.047047 6.49609375 12.50390625 C4.47270066 10.76284708 2.65438834 9.09524254 1 7 C1 6.34 1 5.68 1 5 C0.34 5 -0.32 5 -1 5 C-0.67 3.35 -0.34 1.7 0 0 Z " fill="#72DDF2" transform="translate(7,15)"/>
<path d="M0 0 C3.96 0 7.92 0 12 0 C11 4 11 4 9 6 C8.01 5.67 7.02 5.34 6 5 C6 3.68 6 2.36 6 1 C4.02 1 2.04 1 0 1 C0 0.67 0 0.34 0 0 Z " fill="#6ADBF1" transform="translate(18,23)"/>
<path d="M0 0 C2.31 0 4.62 0 7 0 C6.67 0.99 6.34 1.98 6 3 C4.02 3 2.04 3 0 3 C0 2.01 0 1.02 0 0 Z " fill="#E5F8FC" transform="translate(18,26)"/>
</svg>
